<?xml version="1.0" standalone="no"?>
<!DOCTYPE svg PUBLIC "-//W3C//DTD SVG 20010904//EN"
 "http://www.w3.org/TR/2001/REC-SVG-20010904/DTD/svg10.dtd">
<svg version="1.0" xmlns="http://www.w3.org/2000/svg"
 width="192.000000pt" height="192.000000pt" viewBox="0 0 192.000000 192.000000"
 preserveAspectRatio="xMidYMid meet">
<metadata>
Created by potrace 1.11, written by Peter Selinger 2001-2013
</metadata>
<g transform="translate(0.000000,192.000000) scale(0.100000,-0.100000)"
fill="#000000" stroke="none">
<path d="M913 1840 c2 -11 6 -23 10 -26 4 -4 7 -16 7 -26 0 -10 4 -18 9 -18 5
0 8 -8 7 -17 -2 -10 0 -32 5 -50 4 -18 3 -33 -1 -33 -5 0 -6 -9 -3 -20 3 -11
0 -27 -7 -35 -6 -8 -9 -19 -5 -25 3 -5 1 -10 -5 -10 -6 0 -8 -4 -5 -10 3 -5 1
-10 -4 -10 -6 0 -11 -6 -11 -14 0 -7 -17 -31 -37 -52 -21 -21 -37 -42 -36 -45
1 -3 -9 -12 -22 -19 -14 -7 -25 -17 -25 -22 0 -4 -7 -8 -16 -8 -8 0 -12 -4 -9
-10 3 -5 1 -10 -5 -10 -6 0 -8 -5 -4 -12 4 -6 3 -8 -3 -5 -5 3 -17 -3 -26 -14
-9 -10 -13 -19 -9 -19 4 0 -1 -5 -10 -11 -10 -5 -18 -16 -18 -23 0 -8 -7 -19
-15 -26 -8 -7 -12 -16 -9 -22 3 -5 0 -16 -7 -24 -7 -9 -14 -21 -16 -28 -1 -6
-7 -29 -12 -50 -5 -22 -8 -44 -5 -48 10 -15 -21 -8 -45 11 -22 17 -30 33 -33
69 -1 6 -4 12 -8 12 -3 0 -6 25 -5 56 0 30 -4 58 -10 61 -5 4 -7 3 -3 -1 9
-11 -23 -46 -35 -39 -6 3 -7 1 -3 -5 4 -7 2 -12 -4 -12 -6 0 -9 -4 -6 -9 3 -5
-1 -12 -10 -15 -8 -3 -12 -10 -9 -16 3 -5 1 -10 -5 -10 -7 0 -10 -7 -6 -15 3
-8 1 -15 -5 -15 -6 0 -7 -4 -4 -10 3 -5 -1 -10 -10 -10 -10 0 -13 -4 -8 -12
11 -19 13 -39 1 -32 -5 3 -8 -2 -7 -12 2 -11 0 -25 -4 -31 -5 -8 -3 -13 5 -13
9 0 9 -3 -2 -10 -11 -7 -12 -10 -2 -10 9 0 11 -7 7 -20 -4 -12 -2 -20 5 -20 6
0 9 -4 6 -8 -3 -5 1 -20 9 -35 7 -14 11 -28 7 -31 -3 -3 0 -6 8 -6 10 0 10 -4
-1 -17 -8 -9 -9 -14 -3 -10 6 3 16 -5 23 -20 11 -24 10 -25 -4 -13 -14 12 -14
10 -5 -16 6 -16 8 -26 5 -22 -4 4 -18 -4 -32 -18 -13 -13 -26 -24 -29 -24 -2
0 -19 15 -37 33 -25 24 -32 40 -31 64 1 19 -2 30 -8 27 -6 -4 -5 4 2 16 15 29
8 34 -17 13 -11 -10 -18 -24 -15 -32 3 -8 0 -11 -7 -7 -10 6 -16 -19 -12 -46
0 -5 -4 -8 -10 -8 -6 0 -9 -6 -6 -14 3 -8 2 -16 -2 -18 -5 -2 -11 -22 -15 -46
-3 -24 -9 -48 -12 -54 -5 -7 -2 -8 5 -3 10 5 11 3 4 -11 -11 -23 -11 -65 0
-81 5 -8 3 -13 -4 -13 -9 0 -9 -4 1 -15 6 -8 9 -19 6 -24 -4 -5 -2 -12 3 -16
6 -3 8 -12 4 -20 -3 -8 0 -15 6 -15 6 0 8 -6 5 -14 -3 -8 0 -17 5 -21 6 -3 9
-11 6 -16 -4 -5 -1 -9 5 -9 6 0 8 -5 5 -10 -3 -6 0 -13 9 -16 8 -3 13 -11 10
-17 -2 -7 7 -25 21 -41 14 -16 25 -35 25 -43 0 -8 4 -11 10 -8 6 3 10 2 10 -3
0 -13 75 -92 88 -92 7 0 12 -4 12 -8 0 -5 12 -14 26 -20 14 -7 22 -17 19 -23
-4 -6 -1 -9 6 -8 16 3 121 -46 114 -52 -2 -3 8 -6 22 -7 14 -1 31 -6 38 -12 6
-5 26 -10 43 -12 18 -1 32 -5 32 -8 0 -4 19 -7 42 -8 23 -1 46 -6 52 -12 6 -6
14 -6 23 1 9 8 13 8 13 0 0 -13 22 -10 32 4 5 6 8 5 8 -2 0 -9 7 -10 24 -3 15
5 27 5 35 -3 6 -6 11 -7 11 -1 0 5 21 10 46 9 25 0 48 3 50 7 8 13 26 9 19 -4
-4 -7 1 -4 9 6 9 11 16 16 16 12 0 -5 8 -2 17 5 11 10 14 10 9 2 -4 -7 -2 -13
3 -13 6 0 11 5 11 11 0 6 7 9 15 5 8 -3 15 -1 15 5 0 6 5 7 10 4 6 -3 10 -2
10 4 0 6 6 8 14 5 7 -3 21 2 30 11 9 9 16 13 16 9 0 -3 6 -1 13 5 8 6 17 8 20
4 4 -3 7 -1 7 6 0 7 5 9 10 6 6 -3 13 0 16 8 5 15 40 31 59 27 5 -1 7 2 3 6
-9 9 33 40 47 36 5 -2 7 -1 4 3 -8 7 53 73 64 68 4 -2 7 3 7 11 0 8 9 23 19
33 23 22 85 142 77 150 -3 3 1 12 9 19 8 8 12 23 10 34 -2 11 0 20 4 20 5 0 7
11 6 25 -2 14 0 27 5 30 8 5 5 48 -5 64 -3 6 0 11 7 11 8 0 9 3 3 8 -6 4 -10
19 -10 35 1 15 -3 27 -8 27 -5 0 -4 7 3 15 10 12 9 16 -4 21 -9 3 -14 9 -11
13 2 4 -2 20 -10 35 -10 18 -11 25 -2 21 7 -4 4 0 -5 7 -9 8 -20 26 -23 41 -4
15 -11 27 -16 27 -5 0 -9 6 -9 13 0 7 -13 28 -28 47 l-28 33 2 -66 c1 -37 -2
-70 -7 -72 -4 -3 -6 -12 -3 -19 3 -8 0 -17 -5 -21 -6 -3 -9 -11 -6 -16 4 -5 2
-9 -3 -9 -5 0 -19 -8 -30 -19 -25 -21 -66 -17 -91 8 -16 17 -22 73 -8 87 4 4
7 15 7 25 0 9 5 19 11 21 5 2 11 11 12 20 2 9 9 23 16 32 7 9 11 23 7 31 -3 8
-2 15 3 15 5 0 9 27 9 59 0 33 3 65 7 72 5 7 4 10 -3 5 -6 -3 -13 -2 -17 4 -3
5 -1 10 6 10 8 0 8 4 -1 15 -7 8 -9 15 -4 15 5 0 2 5 -6 10 -13 9 -13 10 0 10
12 1 11 3 -2 11 -10 5 -18 19 -18 30 0 11 -7 22 -15 25 -8 4 -12 10 -9 15 3 5
0 9 -5 9 -6 0 -11 7 -11 16 0 9 -6 14 -12 11 -7 -2 -12 -9 -11 -14 10 -49 9
-64 -5 -84 -26 -37 -51 -59 -68 -59 -8 0 -12 -4 -9 -10 3 -5 1 -10 -4 -10 -6
0 -11 5 -11 12 0 9 -3 9 -12 0 -15 -15 -68 22 -68 49 0 10 -4 19 -8 19 -12 0
-10 104 3 112 6 5 5 8 -3 8 -10 0 -10 5 -2 20 8 15 8 20 -2 20 -9 0 -9 3 -2 8
13 9 13 82 1 82 -5 0 -4 6 2 14 8 10 9 16 1 21 -5 3 -10 19 -10 35 0 27 -37
112 -52 118 -5 2 -8 8 -8 14 0 15 -110 118 -126 118 -8 0 -14 5 -14 11 0 5 -4
7 -10 4 -5 -3 -10 -1 -10 4 0 6 -4 11 -10 11 -5 0 -9 -9 -7 -20z"/>
<path d="M631 1588 c-18 -5 -39 -15 -45 -22 -21 -23 -37 -57 -31 -66 4 -6 2
-10 -4 -10 -7 0 -7 -8 -1 -26 6 -14 8 -30 5 -34 -3 -5 4 -14 16 -20 16 -9 24
-9 33 1 8 9 8 10 -3 4 -11 -6 -13 -4 -6 11 4 10 10 29 12 42 3 12 10 22 15 22
5 0 6 5 3 10 -3 6 -1 10 6 10 7 0 9 3 6 7 -4 3 5 17 19 30 14 12 22 23 18 23
-3 0 -1 6 5 13 13 16 1 18 -48 5z"/>
<path d="M1490 1318 c0 -10 5 -18 12 -18 6 0 8 -3 5 -7 -4 -3 0 -17 9 -31 11
-17 12 -22 3 -16 -11 6 -12 5 -2 -7 6 -8 14 -27 17 -42 2 -15 7 -31 11 -37 3
-5 2 -10 -2 -10 -5 0 -9 -8 -9 -19 0 -16 3 -17 21 -7 26 14 35 28 28 40 -3 5
-1 6 5 2 11 -7 17 6 13 28 -1 4 4 14 10 22 10 12 9 13 -6 8 -15 -6 -16 -4 -5
16 7 12 7 20 2 16 -6 -3 -13 2 -17 13 -3 11 -17 27 -32 36 -17 11 -23 13 -17
4 6 -12 5 -12 -9 0 -9 7 -17 10 -17 5 0 -5 -5 -2 -10 6 -8 13 -10 12 -10 -2z"/>
</g>
</svg>
